<svg xmlns="http://www.w3.org/2000/svg" viewBox="0 0 1488.27 262.92"><defs><style>.a{fill:#fff;}.b{fill:#292523;}.c{fill:#f6f6f6;}.d{fill:#af8e6a;}.e{fill:#896442;}.f{fill:#201d1a;}</style></defs><title>coffee-stop-logo</title><path class="a" d="M969.43,56.94l-5.67,57.19L952.84,224.27l-5,50.13c0,3.9-24.5,7.06-54.72,7.06s-54.71-3.16-54.71-7.06l-5-50.13L822.56,114.13l-5.68-57.19Z" transform="translate(-25.38 -18.54)"/><polygon class="b" points="954.68 38.39 779.33 38.39 783.8 28.58 867.23 18.71 950.47 28.58 954.68 38.39"/><path class="b" d="M965.4,22.39c0-2.12-32.63-3.85-72.88-3.85s-72.88,1.73-72.88,3.85v20H965.4v-20Z" transform="translate(-25.38 -18.54)"/><path class="b" d="M975.38,41.65H809.85c-.55,0-1,1.41-1,3.16s.44,3.15,1,3.15a1.19,1.19,0,0,1,.46.23H975s.23-.23.36-.23c.55,0,1-1.41,1-3.15S975.93,41.65,975.38,41.65Z" transform="translate(-25.38 -18.54)"/><path class="c" d="M953.71,215.47l10-101.34L952.84,224.27,948,273l-.14,1.38c0,3.9-24.49,7.06-54.71,7.06s-54.72-3.16-54.72-7.06L838.3,273a313.19,313.19,0,0,0,39.8,2.21c5.22,0,10.27-.09,15.06-.26h0c22.9-.85,39.65-3.57,39.65-6.79l4.94-49.79A99.76,99.76,0,0,0,953.71,215.47Z" transform="translate(-25.38 -18.54)"/><polygon class="c" points="944.05 38.39 938.37 95.59 922.71 95.59 923.33 89.36 928.38 38.39 944.05 38.39"/><polygon class="c" points="812.83 95.59 797.17 95.59 791.5 38.39 807.16 38.39 812.22 89.36 812.83 95.59"/><path class="c" d="M948,273l-.14,1.38c0,3.9-24.49,7.06-54.71,7.06s-54.72-3.16-54.72-7.06L838.3,273l-4.83-48.75L822.56,114.13l10,101.34a99.76,99.76,0,0,0,15.95,2.92l4.93,49.79c0,3.22,16.77,5.94,39.68,6.79,4.78.17,9.82.26,15.05.26A313.19,313.19,0,0,0,948,273Z" transform="translate(-25.38 -18.54)"/><path class="d" d="M948.09,114.13l2.67,55.07-13,48.85,0,.34a396.9,396.9,0,0,1-44.61,2.24,396.71,396.71,0,0,1-44.6-2.24l0-.34-18.29-43.56,8-60.36h11.37c8.56-10.51,24.85-17.6,43.56-17.6s35,7.09,43.57,17.6Z" transform="translate(-25.38 -18.54)"/><path class="e" d="M848.55,218.39a99.76,99.76,0,0,1-15.95-2.92l-10-101.34h15.66l10.3,103.92Z" transform="translate(-25.38 -18.54)"/><path class="e" d="M963.76,114.13l-10,101.34a99.76,99.76,0,0,1-16,2.92l0-.34,10.29-103.92Z" transform="translate(-25.38 -18.54)"/><rect class="f" x="794.26" y="21.72" width="145.76" height="1.39"/><rect class="f" x="784.43" y="27.86" width="166.04" height="1.39"/><path class="f" d="M893.15,18.54c-40.24,0-72.87,1.73-72.87,3.85v1.1c10.76-1.42,37-2.42,67.65-2.42,40.25,0,72.88,1.73,72.88,3.85V41.65H966V22.39C966,20.27,933.41,18.54,893.15,18.54Z" transform="translate(-25.38 -18.54)"/><path class="f" d="M893.16,18.54c40.25,0,72.87,1.73,72.87,3.85v1.1c-10.76-1.42-37-2.42-67.65-2.42-40.25,0-72.88,1.73-72.88,3.85V41.65h-5.22V22.39C820.28,20.27,852.91,18.54,893.16,18.54Z" transform="translate(-25.38 -18.54)"/><path class="f" d="M816.5,52.29l4.46-9.8a7,7,0,0,1-.2-.84H809.85c-.55,0-1,1.41-1,3.16a7.45,7.45,0,0,0,.32,2.32l-4.47,9.8H980.07l-2-4.64Z" transform="translate(-25.38 -18.54)"/><path class="f" d="M968.28,52.29l-4.47-9.8a5.42,5.42,0,0,0,.21-.84h10.91c.55,0,1,1.41,1,3.16a7.45,7.45,0,0,1-.32,2.32l4.47,9.8H804.71l2-4.64Z" transform="translate(-25.38 -18.54)"/><path d="M902.36,172.7a22.18,22.18,0,0,1-1.48,3.32,5.85,5.85,0,0,1-10.11-5.79,1.48,1.48,0,0,0-.29-1.86q-7.05-8.64-14.05-17.32a1.94,1.94,0,0,0-1.71-.85c-2.5.05-2.51,0-3.28,2.36l-.38,1.21a18.53,18.53,0,0,1,10.78,12.66,18.12,18.12,0,0,1-1.5,13.19,18.8,18.8,0,1,1-12.59-27c.41-1.23.84-2.45,1.24-3.7a.77.77,0,0,0-.16-.57c-1.4-1.88-1.24-3.25.57-4.74,0,0,.07-.1.15-.21l-1.72-2.21c-.78.6-1.48,1.16-2.21,1.7a1.77,1.77,0,1,1-2.16-2.81c1.24-1,2.5-1.88,3.77-2.78a1.47,1.47,0,0,1,2.28.4c1.1,1.35,2.17,2.73,3.32,4.18,1.74-.78,3.43-1.67,5.21-2.29a4.69,4.69,0,0,0,3.26-3.51c.93-3.32,2.09-6.59,3.27-9.85.88-2.42,1.91-4.81,3-7.17a3.39,3.39,0,0,1,4.22-1.72c5.94,2,11.9,3.94,17.79,6.07a13,13,0,0,1,4.25,2.63,8.32,8.32,0,0,1,1.2,10.79q-3.15,4.88-6.36,9.72a1,1,0,0,0,0,1.32c1.44,2.07,2.84,4.17,4.25,6.25a18.91,18.91,0,0,1,25.64,9.77,18.7,18.7,0,0,1-9,23.89,18,18,0,0,1-17.52-.39C906.31,184.25,903.23,179.21,902.36,172.7ZM866.2,157c-5.49-1.47-13.79,1.67-16.32,9.83a14.38,14.38,0,1,0,27.6,8c2.24-8-2.77-14.91-7.87-16.72l-.31.87-3.87,11.32a1.88,1.88,0,0,1-2.38,1.4,1.79,1.79,0,0,1-1-2.53c.46-1.39.94-2.78,1.41-4.16C864.37,162.34,865.29,159.66,866.2,157Zm49.28,1c.25.38.44.7.65,1q3.57,5.39,7.15,10.76a2,2,0,0,1,.29,2.18,1.89,1.89,0,0,1-1.92.9H907.06c-.12,4.74,4.57,10.34,10,12a14.46,14.46,0,0,0,16.42-6.11,14.36,14.36,0,0,0-18-20.71ZM893.86,167c.06-.29.11-.43.13-.57.59-3.82,1.19-7.63,1.76-11.46a1.34,1.34,0,0,0-.3-.9c-.88-1.1-1.82-2.14-2.69-3.25a1.48,1.48,0,0,0-1.34-.62c-3.4,0-6.8,0-10.2,0-.26,0-.51.05-.91.09Zm-15.37-20.49v.12h9.57c-1.5-3-1-4.8,1.86-6.57l7.39-4.61c.25-.15.47-.33.82-.58l-8.11-3c-1.22,3.66-2.37,7.22-3.59,10.75a1.88,1.88,0,0,1-.94,1C883.18,144.66,880.83,145.58,878.49,146.52Zm40.39,22.71-6.4-9.45c-2.8,1.69-5.6,6.63-5.39,9.45Zm-16.38,0A19,19,0,0,1,909.91,156l-3.78-5.57c-.6.9-1.18,1.67-1.66,2.49-.7,1.23-1.19,2.48-.05,3.76a5,5,0,0,1,.65,1,1.53,1.53,0,0,1-.06,1.92,18.43,18.43,0,0,1-2.33,1.6c-.26.18-.62.39-.69.66-.53,2-1,4-1.5,6a1.06,1.06,0,0,0,1,1.34C901.77,169.23,902.08,169.21,902.5,169.21Zm-5.57-24.4,1.38,2,2-3.92-.13-.11Z" transform="translate(-25.38 -18.54)"/><path d="M870.64,117.23a7.2,7.2,0,0,1,14.39.11,7.2,7.2,0,1,1-14.39-.11Z" transform="translate(-25.38 -18.54)"/><path class="a" d="M134,201.17a4.36,4.36,0,0,1,3.3,1.5l9.3,10.1A59,59,0,0,1,125,229.12q-12.8,5.76-30.6,5.75a71.84,71.84,0,0,1-28.55-5.45,62.72,62.72,0,0,1-21.75-15.2A67.53,67.53,0,0,1,30.23,191a87.37,87.37,0,0,1-4.85-29.7,83.2,83.2,0,0,1,5.15-29.75A68.42,68.42,0,0,1,45,108.22a65.18,65.18,0,0,1,22.4-15.15,74.51,74.51,0,0,1,28.75-5.4q15.6,0,27.55,5a68.06,68.06,0,0,1,20.75,13.45l-7.7,10.9a8.16,8.16,0,0,1-1.9,1.9,5,5,0,0,1-3,.8,8,8,0,0,1-4.55-1.85,71.53,71.53,0,0,0-6.5-4.1,47.94,47.94,0,0,0-24.75-5.95,48.52,48.52,0,0,0-18.9,3.6A41,41,0,0,0,62.38,122a48.88,48.88,0,0,0-9.65,16.8,68.16,68.16,0,0,0-3.45,22.5,66.29,66.29,0,0,0,3.6,22.65,49.06,49.06,0,0,0,9.9,16.8,42.33,42.33,0,0,0,14.8,10.45,46.46,46.46,0,0,0,18.3,3.6,78.76,78.76,0,0,0,10.75-.65,42,42,0,0,0,8.75-2.1,39.57,39.57,0,0,0,7.55-3.65,46.65,46.65,0,0,0,7-5.4A6,6,0,0,1,134,201.17Z" transform="translate(-25.38 -18.54)"/><path class="a" d="M299.28,161.27a81.32,81.32,0,0,1-5.2,29.5A68.22,68.22,0,0,1,279.43,214a66.85,66.85,0,0,1-22.7,15.25,81.33,81.33,0,0,1-58.8,0,66.39,66.39,0,0,1-37.45-38.5,81.32,81.32,0,0,1-5.2-29.5,81.36,81.36,0,0,1,5.2-29.5,68.48,68.48,0,0,1,14.7-23.3,67.18,67.18,0,0,1,22.75-15.3,81.33,81.33,0,0,1,58.8,0,66.68,66.68,0,0,1,22.7,15.3,68.83,68.83,0,0,1,14.65,23.3A81.36,81.36,0,0,1,299.28,161.27Zm-23.9,0A69.46,69.46,0,0,0,272,139a47.09,47.09,0,0,0-9.6-16.8,41.81,41.81,0,0,0-15.15-10.6,55.63,55.63,0,0,0-39.9,0,42.34,42.34,0,0,0-15.2,10.6,47.42,47.42,0,0,0-9.7,16.8,68.61,68.61,0,0,0-3.4,22.3,68.89,68.89,0,0,0,3.4,22.4,46.84,46.84,0,0,0,9.7,16.75,42,42,0,0,0,15.2,10.5,56.35,56.35,0,0,0,39.9,0,41.44,41.44,0,0,0,15.15-10.5,46.52,46.52,0,0,0,9.6-16.75A69.75,69.75,0,0,0,275.38,161.27Z" transform="translate(-25.38 -18.54)"/><path class="a" d="M348.38,108.17v46.1h56.3v18.9h-56.3v60.1h-23.5v-144h89.8v18.9Z" transform="translate(-25.38 -18.54)"/><path class="a" d="M461.48,108.17v46.1h56.3v18.9h-56.3v60.1H438v-144h89.8v18.9Z" transform="translate(-25.38 -18.54)"/><path class="a" d="M641,214.37l-.1,18.9h-89.8v-144h89.8v18.9h-66.3v43.4h53v18.3h-53v44.5Z" transform="translate(-25.38 -18.54)"/><path class="a" d="M756.17,214.37l-.1,18.9h-89.8v-144h89.8v18.9h-66.3v43.4h53v18.3h-53v44.5Z" transform="translate(-25.38 -18.54)"/><path class="a" d="M1105.77,113.87a8.84,8.84,0,0,1-2.3,2.65,5.08,5.08,0,0,1-3,.85,7.73,7.73,0,0,1-4.25-1.6c-1.57-1.06-3.5-2.25-5.81-3.55a50.85,50.85,0,0,0-8.14-3.6,38.35,38.35,0,0,0-21.75-.15,22,22,0,0,0-7.66,4.2,17.36,17.36,0,0,0-4.64,6.35,20.06,20.06,0,0,0-1.56,8,14.2,14.2,0,0,0,2.91,9.15,24.59,24.59,0,0,0,7.65,6.25,60.93,60.93,0,0,0,10.85,4.55q6.09,2,12.45,4.15t12.45,5a42.84,42.84,0,0,1,10.85,7.1,32.87,32.87,0,0,1,7.65,10.5,35.56,35.56,0,0,1,2.89,15.1,48.78,48.78,0,0,1-3.29,18,42.58,42.58,0,0,1-9.55,14.65,44.4,44.4,0,0,1-15.41,9.85,56.52,56.52,0,0,1-20.84,3.6,66.34,66.34,0,0,1-13.45-1.35,68.93,68.93,0,0,1-12.5-3.8,62,62,0,0,1-11.16-5.95,56.19,56.19,0,0,1-9.3-7.8l6.8-11.2a6.75,6.75,0,0,1,2.31-2.2,6.14,6.14,0,0,1,3.1-.8,8.67,8.67,0,0,1,5.09,2.15c1.87,1.44,4.12,3,6.75,4.7a51.93,51.93,0,0,0,9.56,4.7,37.19,37.19,0,0,0,13.39,2.15q12.71,0,19.66-6.2t7-17.1a16.14,16.14,0,0,0-2.9-9.95,23.79,23.79,0,0,0-7.66-6.45,55.06,55.06,0,0,0-10.84-4.4q-6.1-1.8-12.41-3.85a119.09,119.09,0,0,1-12.39-4.8,39.37,39.37,0,0,1-10.86-7.2,33.27,33.27,0,0,1-7.64-11q-2.91-6.54-2.91-16.35a38.85,38.85,0,0,1,12-28,43.64,43.64,0,0,1,14.45-9.05,53.07,53.07,0,0,1,19.59-3.4,64,64,0,0,1,22.75,3.9,51.76,51.76,0,0,1,17.86,11.1Z" transform="translate(-25.38 -18.54)"/><path class="a" d="M1238.66,108.77h-44.9v124.5h-23.3V108.77h-45V89.27h113.2Z" transform="translate(-25.38 -18.54)"/><path class="a" d="M1388.36,161.27a81.32,81.32,0,0,1-5.2,29.5A68.22,68.22,0,0,1,1368.51,214a66.85,66.85,0,0,1-22.7,15.25,81.33,81.33,0,0,1-58.8,0,66.39,66.39,0,0,1-37.45-38.5,81.32,81.32,0,0,1-5.2-29.5,81.36,81.36,0,0,1,5.2-29.5,68.48,68.48,0,0,1,14.7-23.3A67.18,67.18,0,0,1,1287,93.17a81.33,81.33,0,0,1,58.8,0,66.68,66.68,0,0,1,22.7,15.3,68.83,68.83,0,0,1,14.65,23.3A81.36,81.36,0,0,1,1388.36,161.27Zm-23.9,0a69.46,69.46,0,0,0-3.35-22.3,47.09,47.09,0,0,0-9.6-16.8,41.89,41.89,0,0,0-15.15-10.6,55.63,55.63,0,0,0-39.9,0,42.34,42.34,0,0,0-15.2,10.6,47.42,47.42,0,0,0-9.7,16.8,68.35,68.35,0,0,0-3.4,22.3,68.62,68.62,0,0,0,3.4,22.4,46.84,46.84,0,0,0,9.7,16.75,42,42,0,0,0,15.2,10.5,56.35,56.35,0,0,0,39.9,0,41.53,41.53,0,0,0,15.15-10.5,46.52,46.52,0,0,0,9.6-16.75A69.75,69.75,0,0,0,1364.46,161.27Z" transform="translate(-25.38 -18.54)"/><path class="a" d="M1458.76,89.27q14.1,0,24.45,3.3a47.23,47.23,0,0,1,17.1,9.25,36.94,36.94,0,0,1,10,14.3,52.86,52.86,0,0,1-.2,37.3,39.55,39.55,0,0,1-10.4,14.7,48.83,48.83,0,0,1-17.15,9.6,74.86,74.86,0,0,1-23.85,3.45h-21.4v52.1H1414v-144Zm0,73.4a43,43,0,0,0,13.75-2,27,27,0,0,0,9.9-5.65,23.27,23.27,0,0,0,5.95-8.85,32.12,32.12,0,0,0,2-11.6,30.93,30.93,0,0,0-1.95-11.3,22.05,22.05,0,0,0-5.85-8.5,26.31,26.31,0,0,0-9.85-5.35,47.29,47.29,0,0,0-14-1.85h-21.4v55.1Z" transform="translate(-25.38 -18.54)"/></svg>