<svg xmlns="http://www.w3.org/2000/svg" viewBox="0 0 175.35 262.92"><defs><style>.a{fill:#fff;}.b{fill:#292523;}.c{fill:#f6f6f6;}.d{fill:#af8e6a;}.e{fill:#896442;}.f{fill:#201d1a;}</style></defs><title>coffee-stop</title><path class="a" d="M227,56.94l-5.67,57.19L210.45,224.27l-5,50.13c0,3.9-24.5,7.06-54.72,7.06s-54.71-3.16-54.71-7.06l-5-50.13L80.17,114.13,74.49,56.94Z" transform="translate(-62.32 -18.54)"/><polygon class="b" points="175.35 38.39 0 38.39 4.47 28.58 87.9 18.71 171.14 28.58 175.35 38.39"/><path class="b" d="M223,22.39c0-2.12-32.63-3.85-72.88-3.85s-72.88,1.73-72.88,3.85v20H223v-20Z" transform="translate(-62.32 -18.54)"/><path class="b" d="M233,41.65H67.46c-.55,0-1,1.41-1,3.16s.44,3.15,1,3.15a1.19,1.19,0,0,1,.46.23H232.63s.23-.23.36-.23c.55,0,1-1.41,1-3.15S233.54,41.65,233,41.65Z" transform="translate(-62.32 -18.54)"/><path class="c" d="M211.32,215.47l10.05-101.34L210.45,224.27,205.62,273l-.14,1.38c0,3.9-24.49,7.06-54.71,7.06s-54.72-3.16-54.72-7.06L95.91,273a313.19,313.19,0,0,0,39.8,2.21c5.23,0,10.27-.09,15.06-.26h0c22.9-.85,39.66-3.57,39.66-6.79l4.93-49.79A99.54,99.54,0,0,0,211.32,215.47Z" transform="translate(-62.32 -18.54)"/><polygon class="c" points="164.72 38.39 159.04 95.59 143.38 95.59 144 89.36 149.05 38.39 164.72 38.39"/><polygon class="c" points="33.5 95.59 17.84 95.59 12.17 38.39 27.84 38.39 32.89 89.36 33.5 95.59"/><path class="c" d="M205.62,273l-.14,1.38c0,3.9-24.49,7.06-54.71,7.06s-54.72-3.16-54.72-7.06L95.91,273l-4.83-48.75L80.17,114.13l10,101.34a99.76,99.76,0,0,0,16,2.92l4.94,49.79c0,3.22,16.76,5.94,39.67,6.79,4.78.17,9.82.26,15,.26A313.19,313.19,0,0,0,205.62,273Z" transform="translate(-62.32 -18.54)"/><path class="d" d="M205.7,114.13l2.67,55.07-13,48.85,0,.34a396.9,396.9,0,0,1-44.61,2.24,396.71,396.71,0,0,1-44.6-2.24l0-.34L87.84,174.49l8-60.36H107.2c8.56-10.51,24.85-17.6,43.56-17.6s35,7.09,43.57,17.6Z" transform="translate(-62.32 -18.54)"/><path class="e" d="M106.16,218.39a99.76,99.76,0,0,1-16-2.92l-10-101.34H95.83l10.3,103.92Z" transform="translate(-62.32 -18.54)"/><path class="e" d="M221.37,114.13,211.32,215.47a99.54,99.54,0,0,1-15.95,2.92l0-.34L205.7,114.13Z" transform="translate(-62.32 -18.54)"/><rect class="f" x="14.93" y="21.72" width="145.76" height="1.39"/><rect class="f" x="5.1" y="27.86" width="166.04" height="1.39"/><path class="f" d="M150.77,18.54c-40.25,0-72.88,1.73-72.88,3.85v1.1c10.76-1.42,37-2.42,67.65-2.42,40.25,0,72.88,1.73,72.88,3.85V41.65h5.22V22.39C223.64,20.27,191,18.54,150.77,18.54Z" transform="translate(-62.32 -18.54)"/><path class="f" d="M150.77,18.54c40.25,0,72.88,1.73,72.88,3.85v1.1c-10.77-1.42-37-2.42-67.66-2.42-40.25,0-72.87,1.73-72.87,3.85V41.65H77.89V22.39C77.89,20.27,110.52,18.54,150.77,18.54Z" transform="translate(-62.32 -18.54)"/><path class="f" d="M74.11,52.29l4.46-9.8a7,7,0,0,1-.2-.84H67.46c-.55,0-1,1.41-1,3.16a7.45,7.45,0,0,0,.32,2.32l-4.47,9.8H237.68l-2-4.64Z" transform="translate(-62.32 -18.54)"/><path class="f" d="M225.89,52.29l-4.46-9.8a7,7,0,0,0,.2-.84h10.91c.55,0,1,1.41,1,3.16a7.45,7.45,0,0,1-.32,2.32l4.47,9.8H62.32l2-4.64Z" transform="translate(-62.32 -18.54)"/><path d="M160,172.7a22.18,22.18,0,0,1-1.48,3.32,5.85,5.85,0,0,1-10.11-5.79,1.49,1.49,0,0,0-.28-1.86Q141,159.73,134,151.05a1.94,1.94,0,0,0-1.71-.85c-2.5.05-2.5,0-3.28,2.36l-.38,1.21a18.57,18.57,0,0,1,10.79,12.66A18.17,18.17,0,0,1,138,179.62a18.8,18.8,0,1,1-12.59-27c.41-1.23.84-2.45,1.24-3.7a.77.77,0,0,0-.16-.57c-1.4-1.88-1.24-3.25.57-4.74,0,0,.07-.1.15-.21l-1.72-2.21c-.78.6-1.48,1.16-2.21,1.7a1.77,1.77,0,1,1-2.16-2.81c1.24-1,2.5-1.88,3.77-2.78a1.47,1.47,0,0,1,2.28.4c1.1,1.35,2.17,2.73,3.32,4.18,1.74-.78,3.43-1.67,5.21-2.29a4.69,4.69,0,0,0,3.26-3.51c.93-3.32,2.09-6.59,3.27-9.85.88-2.42,1.91-4.81,3-7.17a3.39,3.39,0,0,1,4.22-1.72c5.94,2,11.9,3.94,17.79,6.07a13,13,0,0,1,4.25,2.63,8.32,8.32,0,0,1,1.2,10.79q-3.15,4.88-6.35,9.72a1,1,0,0,0,0,1.32c1.45,2.07,2.84,4.17,4.25,6.25a18.91,18.91,0,0,1,25.64,9.77,18.7,18.7,0,0,1-9,23.89,18,18,0,0,1-17.52-.39C163.92,184.25,160.85,179.21,160,172.7ZM123.81,157c-5.49-1.47-13.79,1.67-16.32,9.83a14.38,14.38,0,1,0,27.6,8c2.24-8-2.76-14.91-7.87-16.72l-.31.87c-1.29,3.77-2.57,7.55-3.87,11.32a1.88,1.88,0,0,1-2.37,1.4,1.79,1.79,0,0,1-1-2.53c.46-1.39.94-2.78,1.41-4.16C122,162.34,122.9,159.66,123.81,157Zm49.28,1c.25.38.44.7.65,1q3.57,5.39,7.15,10.76a2,2,0,0,1,.29,2.18,1.88,1.88,0,0,1-1.91.9h-14.6c-.12,4.74,4.57,10.34,10,12a14.46,14.46,0,0,0,16.42-6.11,14.35,14.35,0,0,0-18-20.71ZM151.47,167c.06-.29.11-.43.13-.57.59-3.82,1.19-7.63,1.76-11.46a1.34,1.34,0,0,0-.3-.9c-.88-1.1-1.82-2.14-2.68-3.25a1.5,1.5,0,0,0-1.35-.62c-3.4,0-6.8,0-10.2,0-.25,0-.51.05-.91.09ZM136.1,146.52v.12h9.57c-1.5-3-1-4.8,1.86-6.57l7.39-4.61c.25-.15.47-.33.82-.58l-8.11-3c-1.21,3.66-2.37,7.22-3.59,10.75a1.88,1.88,0,0,1-.94,1C140.79,144.66,138.44,145.58,136.1,146.52Zm40.39,22.71-6.4-9.45c-2.79,1.69-5.6,6.63-5.39,9.45Zm-16.38,0A19,19,0,0,1,167.53,156l-3.79-5.57c-.6.9-1.18,1.67-1.66,2.49-.7,1.23-1.19,2.48-.05,3.76a5,5,0,0,1,.65,1,1.54,1.54,0,0,1-.05,1.92,19.3,19.3,0,0,1-2.34,1.6c-.26.18-.61.39-.69.66-.53,2-1,4-1.5,6a1.06,1.06,0,0,0,1,1.34C159.38,169.23,159.69,169.21,160.11,169.21Zm-5.57-24.4,1.38,2,2-3.92-.13-.11Z" transform="translate(-62.32 -18.54)"/><path d="M128.25,117.23a7.2,7.2,0,1,1,7.13,7.28A7.16,7.16,0,0,1,128.25,117.23Z" transform="translate(-62.32 -18.54)"/></svg>